<svg xmlns="http://www.w3.org/2000/svg" viewBox="0 0 900 900"><g fill="none" stroke-width="2"><path stroke="#016d66" d="M728.69 308.81c16.39 10.24 18.1 27.59 18.17 45.19q.28 71.04.09 141.92a.83.83 0 0 0 .83.83h64.2q.5 0 .5-.5.07-77.84-.01-155.68c-.04-39.76-12.8-73.16-54.78-83.96-24.81-6.39-53.9-6.06-75.64 8.43-5.91 3.93-13.3 9.44-18.56 15.43q-4.69 5.34-9.1 10.81-.29.35-.47-.06-11.17-25.31-37.71-33.63c-40.71-12.75-79.1-1.03-103.97 33.54q-.43.6-.44-.14l-.31-31.31q-.01-.37-.37-.37l-60.44.08q-.69 0-.69.61l-.02 236.14q0 .61.61.61h63.92a.76.76 0 0 0 .76-.76q-.04-67.1.02-133.99c.01-18.02 2.83-35.76 17.4-47.72 11.92-9.79 29.58-12.13 44.08-7.31 23.56 7.83 21.48 38.77 21.55 59.78q.19 64.89.22 129.68a.32.31 90 0 0 .31.32h64.2q.66 0 .68-.66c.89-34.53-.07-75.96 0-128.28q.02-18.92 3.05-31.29c7.09-28.96 33.04-37.75 59.65-28.87q.87.29 2.27 1.16M866.74 277.99a24.86 24.32.3 0 0-24.733-24.45 24.86 24.32.3 0 0-24.987 24.19 24.86 24.32.3 0 0 24.733 24.45 24.86 24.32.3 0 0 24.987-24.19M229.5 338.26a.4.39 45.6 0 1 .76.01l41.84 157.8q.18.68.89.68h66.26a.46.46 0 0 0 .44-.32l74.53-236.48a.54.54 0 0 0-.51-.7h-66.16a.59.58 6.9 0 0-.57.44l-43.17 158.78q-.61 2.25-1.18-.01l-39.68-157.69q-.38-1.51-1.94-1.51l-61.24-.02a1.03 1.01-83.1 0 0-.99.79l-39.24 159.52a.44.44 0 0 1-.85.01L115.36 259.4q-.04-.16-.2-.16l-67.74.03q-1.4.01-.98 1.34l74.69 235.32a1.19 1.17-8.7 0 0 1.13.82h66.23a.59.59 0 0 0 .57-.43q4.27-15.25 7.98-30.11 12.21-48.89 24.66-97.72 1.28-5.06 2.96-10.01.17-.48.06-.98-.11-.54.06-1.24 2.21-9.16 4.72-18" vector-effect="non-scaling-stroke"/><path stroke="gray" d="M190.26 623.82c41.46 32.05 88.33 56.61 138.26 72.15q106.87 33.26 213.06-1.82 72.23-23.86 132.42-70.41.79-.61.19-1.42l-29.75-40.23q-.22-.3-.53-.09c-21.83 14.39-46.27 24.95-71.18 32.71-75.47 23.51-158.1 26.22-234.39 11.86-41.07-7.73-82.42-21.75-117.99-44.34q-.47-.3-.8.14l-29.5 39.88q-.66.9.21 1.57" vector-effect="non-scaling-stroke"/><path stroke="#016d66" d="M842.221 296.596a18.82 18.12 88.9 0 0 17.756-19.164 18.82 18.12 88.9 0 0-18.478-18.469 18.82 18.12 88.9 0 0-17.756 19.165 18.82 18.12 88.9 0 0 18.478 18.469" vector-effect="non-scaling-stroke"/><path stroke="#016d66" d="M848.86 278.01c6.2-3.42 4.31-11.16-2.12-12.22q-6.73-1.1-13.51.39a1.25 1.25 0 0 0-.97 1.22l.16 22.31q.01.78.79.78l4.5.02q.54 0 .54-.54v-8a.85.84 83 0 1 .64-.82c7.08-1.76 6.57 4.95 8.48 9.14a.83.83 0 0 0 .81.48l4.83-.34q.51-.04.41-.54c-.78-3.83-1.59-8.79-4.62-11.09q-.58-.44.06-.79" vector-effect="non-scaling-stroke"/><path stroke="#016d66" d="m838.56 271.16.02 3.96a1.38 1.38 0 0 0 1.39 1.37h1.04a5 3.2-.3 0 0 4.98-3.23v-.32a5 3.2-.3 0 0-5.02-3.17h-1.04a1.38 1.38 0 0 0-1.37 1.39" vector-effect="non-scaling-stroke"/></g><path d="M0 0h900v900H0V0Zm728.69 308.81c16.39 10.24 18.1 27.59 18.17 45.19q.28 71.04.09 141.92a.83.83 0 0 0 .83.83h64.2q.5 0 .5-.5.07-77.84-.01-155.68c-.04-39.76-12.8-73.16-54.78-83.96-24.81-6.39-53.9-6.06-75.64 8.43-5.91 3.93-13.3 9.44-18.56 15.43q-4.69 5.34-9.1 10.81-.29.35-.47-.06-11.17-25.31-37.71-33.63c-40.71-12.75-79.1-1.03-103.97 33.54q-.43.6-.44-.14l-.31-31.31q-.01-.37-.37-.37l-60.44.08q-.69 0-.69.61l-.02 236.14q0 .61.61.61h63.92a.76.76 0 0 0 .76-.76q-.04-67.1.02-133.99c.01-18.02 2.83-35.76 17.4-47.72 11.92-9.79 29.58-12.13 44.08-7.31 23.56 7.83 21.48 38.77 21.55 59.78q.19 64.89.22 129.68a.32.31 90 0 0 .31.32h64.2q.66 0 .68-.66c.89-34.53-.07-75.96 0-128.28q.02-18.92 3.05-31.29c7.09-28.96 33.04-37.75 59.65-28.87q.87.29 2.27 1.16Zm138.05-30.82a24.86 24.32.3 0 0-24.733-24.45 24.86 24.32.3 0 0-24.987 24.19 24.86 24.32.3 0 0 24.733 24.45 24.86 24.32.3 0 0 24.987-24.19ZM229.5 338.26a.4.39 45.6 0 1 .76.01l41.84 157.8q.18.68.89.68h66.26a.46.46 0 0 0 .44-.32l74.53-236.48a.54.54 0 0 0-.51-.7h-66.16a.59.58 6.9 0 0-.57.44l-43.17 158.78q-.61 2.25-1.18-.01l-39.68-157.69q-.38-1.51-1.94-1.51l-61.24-.02a1.03 1.01-83.1 0 0-.99.79l-39.24 159.52a.44.44 0 0 1-.85.01L115.36 259.4q-.04-.16-.2-.16l-67.74.03q-1.4.01-.98 1.34l74.69 235.32a1.19 1.17-8.7 0 0 1.13.82h66.23a.59.59 0 0 0 .57-.43q4.27-15.25 7.98-30.11 12.21-48.89 24.66-97.72 1.28-5.06 2.96-10.01.17-.48.06-.98-.11-.54.06-1.24 2.21-9.16 4.72-18Zm-39.24 285.56c41.46 32.05 88.33 56.61 138.26 72.15q106.87 33.26 213.06-1.82 72.23-23.86 132.42-70.41.79-.61.19-1.42l-29.75-40.23q-.22-.3-.53-.09c-21.83 14.39-46.27 24.95-71.18 32.71-75.47 23.51-158.1 26.22-234.39 11.86-41.07-7.73-82.42-21.75-117.99-44.34q-.47-.3-.8.14l-29.5 39.88q-.66.9.21 1.57Z"/><path fill="#01d9cc" d="M728.69 308.81q-1.4-.87-2.27-1.16c-26.61-8.88-52.56-.09-59.65 28.87q-3.03 12.37-3.05 31.29c-.07 52.32.89 93.75 0 128.28q-.02.66-.68.66h-64.2a.32.31-90 0 1-.31-.32q-.03-64.79-.22-129.68c-.07-21.01 2.01-51.95-21.55-59.78-14.5-4.82-32.16-2.48-44.08 7.31-14.57 11.96-17.39 29.7-17.4 47.72q-.06 66.89-.02 133.99a.76.76 0 0 1-.76.76h-63.92q-.61 0-.61-.61l.02-236.14q0-.61.69-.61l60.44-.08q.36 0 .37.37l.31 31.31q.01.74.44.14c24.87-34.57 63.26-46.29 103.97-33.54q26.54 8.32 37.71 33.63.18.41.47.06 4.41-5.47 9.1-10.81c5.26-5.99 12.65-11.5 18.56-15.43 21.74-14.49 50.83-14.82 75.64-8.43 41.98 10.8 54.74 44.2 54.78 83.96q.08 77.84.01 155.68 0 .5-.5.5h-64.2a.83.83 0 0 1-.83-.83q.19-70.88-.09-141.92c-.07-17.6-1.78-34.95-18.17-45.19ZM866.74 277.99a24.86 24.32.3 0 1-24.987 24.19 24.86 24.32.3 0 1-24.733-24.45 24.86 24.32.3 0 1 24.987-24.19 24.86 24.32.3 0 1 24.733 24.45Zm-24.519 18.606a18.82 18.12 88.9 0 0 17.756-19.164 18.82 18.12 88.9 0 0-18.478-18.469 18.82 18.12 88.9 0 0-17.756 19.165 18.82 18.12 88.9 0 0 18.478 18.469Z"/><path d="M842.221 296.596a18.82 18.12 88.9 0 1-18.478-18.468 18.82 18.12 88.9 0 1 17.756-19.164 18.82 18.12 88.9 0 1 18.478 18.468 18.82 18.12 88.9 0 1-17.756 19.164Zm6.639-18.586c6.2-3.42 4.31-11.16-2.12-12.22q-6.73-1.1-13.51.39a1.25 1.25 0 0 0-.97 1.22l.16 22.31q.01.78.79.78l4.5.02q.54 0 .54-.54v-8a.85.84 83 0 1 .64-.82c7.08-1.76 6.57 4.95 8.48 9.14a.83.83 0 0 0 .81.48l4.83-.34q.51-.04.41-.54c-.78-3.83-1.59-8.79-4.62-11.09q-.58-.44.06-.79Z"/><path fill="#01d9cc" d="M229.5 338.26q-2.51 8.84-4.72 18-.17.7-.06 1.24.11.5-.06.98-1.68 4.95-2.96 10.01-12.45 48.83-24.66 97.72-3.71 14.86-7.98 30.11a.59.59 0 0 1-.57.43h-66.23a1.19 1.17-8.7 0 1-1.13-.82L46.44 260.61q-.42-1.33.98-1.34l67.74-.03q.16 0 .2.16l43.33 160.16a.44.44 0 0 0 .85-.01l39.24-159.52a1.03 1.01-83.1 0 1 .99-.79l61.24.02q1.56 0 1.94 1.51l39.68 157.69q.57 2.26 1.18.01l43.17-158.78a.59.58 6.9 0 1 .57-.44h66.16a.54.54 0 0 1 .51.7l-74.53 236.48a.46.46 0 0 1-.44.32h-66.26q-.71 0-.89-.68l-41.84-157.8a.4.39 45.6 0 0-.76-.01ZM848.8 278.8c3.03 2.3 3.84 7.26 4.62 11.09q.1.5-.41.54l-4.83.34a.83.83 0 0 1-.81-.48c-1.91-4.19-1.4-10.9-8.48-9.14a.85.84 83 0 0-.64.82v8q0 .54-.54.54l-4.5-.02q-.78 0-.79-.78l-.16-22.31a1.25 1.25 0 0 1 .97-1.22q6.78-1.49 13.51-.39c6.43 1.06 8.32 8.8 2.12 12.22q-.64.35-.06.79Zm-10.24-7.64.02 3.96a1.38 1.38 0 0 0 1.39 1.37h1.04a5 3.2-.3 0 0 4.98-3.23v-.32a5 3.2-.3 0 0-5.02-3.17h-1.04a1.38 1.38 0 0 0-1.37 1.39Z"/><path d="M838.56 271.16a1.38 1.38 0 0 1 1.37-1.39h1.04a5 3.2-.3 0 1 5.02 3.17v.32a5 3.2-.3 0 1-4.98 3.23h-1.04a1.38 1.38 0 0 1-1.39-1.37l-.02-3.96Z"/><path fill="#fff" d="M328.52 695.97c-49.93-15.54-96.8-40.1-138.26-72.15q-.87-.67-.21-1.57l29.5-39.88q.33-.44.8-.14c35.57 22.59 76.92 36.61 117.99 44.34 76.29 14.36 158.92 11.65 234.39-11.86 24.91-7.76 49.35-18.32 71.18-32.71q.31-.21.53.09l29.75 40.23q.6.81-.19 1.42-60.19 46.55-132.42 70.41-106.19 35.08-213.06 1.82Z"/></svg>